<svg height="164" viewBox="0 0 201 164" width="201" xmlns="http://www.w3.org/2000/svg" xmlns:xlink="http://www.w3.org/1999/xlink"><filter id="a" height="340%" width="120.7%" x="-10.3%" y="-120%"><feGaussianBlur in="SourceGraphic" stdDeviation="4"/></filter><g fill="none" fill-rule="evenodd" transform="translate(0 -2)"><path d="m192.803 111.906c15.302-19.63 8.82-59.708-17.396-76.232-50.437-31.791-63.824 26.368-139.007 9.938-39.7-4.247-45.475 47.28-24.363 69.358 11.865 18.064 54.935 6.144 73.088-6.236 42.547-29.016 77.55 24.3 107.678 3.173z" fill="#41c1c6" opacity=".066"/><path d="m105.5 60.045a.5.5 0 0 1 -1 0v-6a.5.5 0 1 1 1 0zm0-9a.5.5 0 0 1 -1 0v-6a.5.5 0 1 1 1 0zm0-9a.5.5 0 0 1 -1 0v-6a.5.5 0 1 1 1 0zm0-9a.5.5 0 0 1 -1 0v-6a.5.5 0 1 1 1 0zm0-9a.5.5 0 0 1 -1 0v-2.045c0-1.443.36-2.834 1.038-4.073a.5.5 0 0 1 .877.48 7.464 7.464 0 0 0 -.915 3.593zm2.7-7.808a.5.5 0 1 1 -.64-.768 8.466 8.466 0 0 1 5.44-1.969h.468a.5.5 0 1 1 0 1h-.468c-1.78 0-3.462.621-4.8 1.737zm8.268-1.737a.5.5 0 1 1 0-1h6a.5.5 0 0 1 0 1zm9 0a.5.5 0 1 1 0-1h6a.5.5 0 0 1 0 1zm9 0a.5.5 0 1 1 0-1h6a.5.5 0 0 1 0 1zm9 0a.5.5 0 1 1 0-1h6a.5.5 0 0 1 0 1zm9 0a.5.5 0 1 1 0-1h4.532c.525 0 1.044.048 1.553.142a.5.5 0 0 1 -.182.983 7.545 7.545 0 0 0 -1.371-.125zm8.554 1.168a.5.5 0 1 1 .537-.843 8.513 8.513 0 0 1 3.678 5.068.5.5 0 1 1 -.97.247 7.513 7.513 0 0 0 -3.245-4.472zm3.478 7.312a.5.5 0 1 1 1 0v6a.5.5 0 1 1 -1 0zm0 9a.5.5 0 1 1 1 0v6a.5.5 0 1 1 -1 0zm0 9a.5.5 0 1 1 1 0v6a.5.5 0 1 1 -1 0zm0 9a.5.5 0 1 1 1 0v6a.5.5 0 1 1 -1 0zm0 9a.5.5 0 1 1 1 0v6a.5.5 0 1 1 -1 0zm0 9a.5.5 0 1 1 1 0v6a.5.5 0 1 1 -1 0zm0 9a.5.5 0 1 1 1 0v6a.5.5 0 1 1 -1 0zm0 9a.5.5 0 1 1 1 0v6a.5.5 0 1 1 -1 0zm0 9a.5.5 0 1 1 1 0v6a.5.5 0 1 1 -1 0zm0 9a.5.5 0 1 1 1 0v6a.5.5 0 1 1 -1 0zm0 9a.5.5 0 1 1 1 0v1.02a8.463 8.463 0 0 1 -1.647 5.03.5.5 0 0 1 -.806-.593 7.463 7.463 0 0 0 1.453-4.437zm-3.499 7.365a.5.5 0 1 1 .535.845 8.462 8.462 0 0 1 -4.536 1.31h-1.493a.5.5 0 0 1 0-1h1.493a7.462 7.462 0 0 0 4.001-1.155zm-8.494 1.155a.5.5 0 0 1 0 1h-6a.5.5 0 0 1 0-1zm-9 0a.5.5 0 0 1 0 1h-6a.5.5 0 0 1 0-1zm-9 0a.5.5 0 0 1 0 1h-6a.5.5 0 0 1 0-1zm-9 0a.5.5 0 0 1 0 1h-6a.5.5 0 0 1 0-1zm-9 0a.5.5 0 0 1 0 1h-3.507c-.898 0-1.778-.14-2.617-.41a.5.5 0 1 1 .308-.952c.74.239 1.515.362 2.309.362zm-8.28-1.715a.5.5 0 1 1 -.637.771 8.487 8.487 0 0 1 -3.023-5.484.5.5 0 1 1 .992-.125 7.488 7.488 0 0 0 2.668 4.838zm-2.727-7.79a.5.5 0 0 1 -1 0v-6a.5.5 0 1 1 1 0zm0-9a.5.5 0 0 1 -1 0v-6a.5.5 0 1 1 1 0zm0-9a.5.5 0 0 1 -1 0v-6a.5.5 0 1 1 1 0zm0-9a.5.5 0 0 1 -1 0v-6a.5.5 0 1 1 1 0zm0-9a.5.5 0 0 1 -1 0v-6a.5.5 0 1 1 1 0zm0-9a.5.5 0 0 1 -1 0v-1.837a.5.5 0 0 1 1 0v1.836z" fill="#d9d9d9" fill-rule="nonzero"/><path d="m56.272 95.56-29.144-24.455a8 8 0 0 1 -.986-11.27l28.283-33.707a8 8 0 0 1 11.27-.986l70.477 59.137a8 8 0 0 1 .986 11.27l-28.283 33.706a8 8 0 0 1 -11.27.986l-37.417-31.394" fill="#fff"/><g fill="#000" fill-rule="nonzero"><path d="m56.796 94.935a.815.815 0 0 1 -1.047 1.25l-29.145-24.457a8.815 8.815 0 0 1 -1.086-12.419l28.283-33.706a8.815 8.815 0 0 1 12.418-1.086l70.477 59.136a8.815 8.815 0 0 1 1.086 12.42l-28.282 33.705a8.815 8.815 0 0 1 -12.418 1.087l-37.416-31.395a.815.815 0 0 1 1.047-1.249l37.415 31.395a7.185 7.185 0 0 0 10.123-.885l28.282-33.706a7.185 7.185 0 0 0 -.885-10.123l-70.476-59.135a7.185 7.185 0 0 0 -10.123.885l-28.282 33.706a7.185 7.185 0 0 0 .885 10.123z"/><path d="m54.991 29.343a.5.5 0 1 1 -.766-.643l1.349-1.607a6.5 6.5 0 0 1 9.157-.802l70.477 59.137a6.5 6.5 0 0 1 .8 9.157l-28.282 33.706a6.5 6.5 0 0 1 -9.157.801l-70.476-59.136a6.5 6.5 0 0 1 -.802-9.158l4.83-5.755a.5.5 0 0 1 .766.642l-4.83 5.756a5.5 5.5 0 0 0 .678 7.749l70.476 59.136a5.5 5.5 0 0 0 7.749-.678l28.283-33.706a5.5 5.5 0 0 0 -.678-7.748l-70.476-59.137a5.5 5.5 0 0 0 -7.749.678z"/><path d="m51.039 32.497a.5.5 0 1 1 .766.643l-1.792 2.135a1.49 1.49 0 0 0 .184 2.099l.006.005a2.49 2.49 0 0 1 .325 3.505l-.008.01-10.436 12.437a2.5 2.5 0 0 1 -3.522.309 1.5 1.5 0 0 0 -2.113.184l-5.106 6.085a.5.5 0 1 1 -.766-.643l5.106-6.084a2.5 2.5 0 0 1 3.522-.308 1.5 1.5 0 0 0 2.113-.185l10.436-12.437.005-.006a1.49 1.49 0 0 0 -.195-2.098l-.01-.008a2.49 2.49 0 0 1 -.307-3.508z"/></g><g transform="matrix(.64278761 -.76604444 .76604444 .64278761 47.741166 71.431261)"><path d="m1.3 7.544a.5.5 0 0 1 -.19-.982l11.333-2.196a.5.5 0 0 1 .19.981zm19.722-5.612a.5.5 0 0 1 .434-.9l11.557 5.57a.5.5 0 1 1 -.435.901zm-13.522 22.568a7 7 0 1 1 0-14 7 7 0 0 1 0 14zm0-1a6 6 0 1 0 0-12 6 6 0 0 0 0 12z" fill="#000" fill-rule="nonzero"/><circle cx="8.877" cy="17.409" fill="#000" r="3"/><circle cx="9.877" cy="17.409" fill="#fff" r="1"/><circle cx="27.877" cy="17.409" fill="#000" r="3"/><circle cx="28.877" cy="17.409" fill="#fff" r="1"/><g fill="#000" fill-rule="nonzero"><path d="m26.5 24.5a7 7 0 1 1 0-14 7 7 0 0 1 0 14zm0-1a6 6 0 1 0 0-12 6 6 0 0 0 0 12zm-9.549 9c-3.957 0-7.82 1.658-11.597 4.995a3.5 3.5 0 0 0 2.672 6.105 89.687 89.687 0 0 1 17.966-.025 3.5 3.5 0 0 0 2.623-6.14c-3.846-3.297-7.73-4.935-11.664-4.935zm0-1c4.19 0 8.298 1.732 12.315 5.175a4.5 4.5 0 0 1 -3.373 7.895 88.665 88.665 0 0 0 -17.765.025 4.5 4.5 0 0 1 -3.436-7.85c3.95-3.49 8.04-5.245 12.259-5.245z"/><path d="m24.472 43.813-.984.18c-.36-1.978-3.194-3.493-6.974-3.493-3.703 0-6.507 1.455-6.953 3.383l-.974-.225c.573-2.478 3.813-4.158 7.927-4.158 4.206 0 7.491 1.757 7.958 4.313z"/></g></g><ellipse cx="103" cy="151" fill="#808080" filter="url(#a)" opacity=".102" rx="58" ry="5"/><g stroke="#808080" stroke-linecap="round" stroke-width="1.224"><path d="m73.175 19.962c.423-.596.861-1.165 1.312-1.708"/><path d="m77.438 15.474c6.144-5.48 13.858-7.163 20.25-6.533" stroke-dasharray="3.98718 3.98718"/><path d="m99.409 9.708c.72.13 1.417.29 2.087.479m-30.429 8.345c.125-.676.306-1.374.545-2.084"/><path d="m72.742 13.738c1.69-3.02 4.412-6.006 8.267-8.23" stroke-dasharray="3.37059 3.37059"/><path d="m82.715 4.248c.63-.308 1.286-.596 1.968-.862"/></g></g></svg>